<svg width="1224" height="261" viewBox="0 0 1224 261" fill="none" xmlns="http://www.w3.org/2000/svg">
<path d="M961.591 132.135C954.184 132.135 948.182 138.225 948.182 145.736V146.494C948.182 149.525 945.788 151.987 942.818 152.069V127.601C942.818 120.09 936.816 114 929.409 114C922.002 114 916 120.09 916 127.601V236H929.409H942.818V179.279C960.577 179.197 975 164.526 975 146.494V145.736C975 138.225 968.996 132.135 961.591 132.135Z" fill="#7D7D7D" fill-opacity="0.1"/>
<path d="M1224 236.464H369L369 237.5L369 238.536C369 238.536 404.914 238.536 418.61 238.536H1174.39C1193.16 238.536 1209.51 238.1 1217.93 237.457C1221.8 237.162 1224 236.824 1224 236.464Z" fill="#DBDBDB" fill-opacity="0.5"/>
<path d="M-5.31907e-05 239H303L303 237.867L303 236.734C303 236.734 290.273 236.734 285.419 236.734H17.581C10.9278 236.734 5.13637 237.211 2.15105 237.914C0.779043 238.236 -5.31907e-05 238.606 -5.31907e-05 239Z" fill="#DBDBDB" fill-opacity="0.5"/>
<g opacity="0.3">
<path d="M883.848 235.56H462.361V232.738L485.208 167.073L558.308 152.999L567.009 136.158L581.915 107.269L728.874 103.759L752.083 147.192L849.477 152.601L883.848 235.56Z" fill="#CCCCCC"/>
<path d="M883.848 235.56L849.477 152.601L752.083 147.192L771.649 193.051L689.217 206.616L777.825 207.53L789.782 235.56H883.848Z" fill="#999999"/>
<path d="M624.1 142.706L558.308 152.999L567.009 136.158L624.1 142.706Z" fill="#999999"/>
</g>
<path d="M430.94 34.3702V63.621C430.94 86.8842 412.019 105.824 388.737 105.824H368.531V253C368.531 253 356.5 248 335.97 256C315.44 264 303.409 259 303.409 259V160.093H283.203C259.94 160.093 241 141.153 241 117.89V88.6388C241 87.3183 241.127 86.052 241.38 84.8038C241.38 84.8038 241.38 84.8039 241.38 84.7858C243.171 76.139 250.823 69.6448 259.994 69.6448C270.486 69.6448 278.988 78.1469 278.988 88.6388V117.89C278.988 120.205 280.887 122.105 283.203 122.105H303.409V32.5612C303.409 14.5802 317.989 0 335.97 0C353.951 0 368.531 14.5802 368.531 32.5612V67.8358H388.737C391.071 67.8358 392.952 65.9364 392.952 63.621V34.3702C392.952 33.0496 393.079 31.7833 393.332 30.5352C393.332 30.5352 393.332 30.5352 393.332 30.5171C395.123 21.8703 402.775 15.3761 411.946 15.3761C422.438 15.3761 430.94 23.8782 430.94 34.3702Z" fill="#898989" fill-opacity="0.3"/>
</svg>
