<svg width="200" height="200" viewBox="0 0 200 200" fill="none" xmlns="http://www.w3.org/2000/svg">
<rect width="200" height="200" rx="15" fill="url(#paint0_linear)"/>
<path d="M52.1875 100.157C52.1875 95.9595 56.0751 91.9294 61.6848 91.9294C67.2945 91.9294 71.1821 95.9595 71.1821 100.157V136.551C71.1821 140.748 67.2945 144.778 61.6848 144.778C56.0751 144.778 52.1875 140.748 52.1875 136.551V100.157Z" fill="white" stroke="white" stroke-width="7.5"/>
<path d="M128.727 60.3385C128.727 56.2047 132.591 52.1875 138.225 52.1875C143.858 52.1875 147.722 56.2047 147.722 60.3385V136.627C147.722 140.761 143.858 144.778 138.225 144.778C132.591 144.778 128.727 140.761 128.727 136.627V60.3385Z" fill="white" stroke="white" stroke-width="7.5"/>
<path d="M90.4574 85.3234C90.4574 80.2553 91.7728 77.1914 93.3667 75.4318C94.9283 73.7079 97.154 72.7944 99.9547 72.7944C102.755 72.7944 104.981 73.7079 106.543 75.4318C108.137 77.1914 109.452 80.2553 109.452 85.3234V132.998C109.452 138.066 108.135 141.37 106.462 143.344C104.831 145.266 102.598 146.25 99.9547 146.25C97.3113 146.25 95.078 145.266 93.4476 143.344C91.7746 141.37 90.4574 138.066 90.4574 132.998V85.3234Z" fill="white" stroke="white" stroke-width="7.5"/>
<defs>
<linearGradient id="paint0_linear" x1="165.625" y1="328.125" x2="-80.8283" y2="150.402" gradientUnits="userSpaceOnUse">
<stop stop-color="#A134FF"/>
<stop offset="0.453125" stop-color="#6E71FF"/>
<stop offset="0.973958" stop-color="#2086FD"/>
</linearGradient>
</defs>
</svg>
